<?xml version="1.0" encoding="UTF-8" standalone="no"?><!DOCTYPE svg PUBLIC "-//W3C//DTD SVG 1.1//EN" "http://www.w3.org/Graphics/SVG/1.1/DTD/svg11.dtd"><svg width="100%" height="100%" viewBox="0 0 2895 561" version="1.1" xmlns="http://www.w3.org/2000/svg" xmlns:xlink="http://www.w3.org/1999/xlink" xml:space="preserve" xmlns:serif="http://www.serif.com/" style="fill-rule:evenodd;clip-rule:evenodd;stroke-linejoin:round;stroke-miterlimit:2;"><path d="M333.315,38.622c96.128,-14.021 190.108,-12.099 282.833,14.287c17.143,4.878 33.318,11.938 48.494,21.22c19.705,12.053 30.517,28.496 28.961,52.889c-1.122,17.583 0.161,35.383 1.298,53.027c0.852,13.224 -3.726,22.139 -14.473,30.38c-87.971,67.46 -185.687,116.852 -288.449,157.003c-52.976,20.699 -107.428,36.234 -163.575,45.691c-21.542,3.628 -24.127,2.385 -30.386,-18.03c-4.753,-15.504 -7.241,-31.359 -7.214,-47.66c0.119,-73.437 0.643,-146.881 -0.263,-220.306c-0.307,-24.866 9.879,-42.007 30.287,-53.973c31.017,-18.186 65.238,-26.86 100.381,-32.507c3.591,-0.577 7.183,-1.145 12.106,-2.021m53.87,25.513c-29.683,1.408 -58.898,6.134 -87.777,12.887c-21.331,4.988 -42.285,11.41 -60.8,23.535c-16.447,10.771 -16.25,17.179 0.074,28.543c15.679,10.914 33.735,16.228 51.963,20.508c92.467,21.714 185.494,22.376 278.639,5.294c26.021,-4.772 52.097,-10.921 75.047,-25.235c15.868,-9.897 16.021,-19.218 0.464,-29.409c-14.929,-9.78 -31.636,-15.921 -48.886,-20.043c-67.728,-16.184 -136.25,-22.992 -208.727,-16.08Z" style="fill-rule:nonzero;"/><path d="M465.271,415.33c-82.982,35.801 -166.77,65.472 -254.442,82.85c-50.581,10.026 -101.56,18.481 -153.139,7.131c-52.419,-11.534 -71.045,-49.086 -47.888,-97.253c23.804,-49.514 62.787,-86.4 104.106,-121.007c16.651,-13.946 33.084,-28.291 53.539,-40.396c4.827,14.171 5.911,25.836 -5.086,36.397c-16.52,15.866 -33.15,31.632 -46.508,50.456c-7.267,10.242 -13.816,20.809 -18.254,32.605c-12.216,32.468 -1.302,55.338 32.163,64.913c31.175,8.92 63.098,6.829 94.481,1.883c123.015,-19.386 235.632,-67.552 343.709,-127.261c62.581,-34.574 122.071,-73.897 173.235,-124.503c20.423,-20.2 39.17,-41.709 51.015,-68.484c13.191,-29.817 2.991,-54.141 -28.191,-63.758c-26.322,-8.118 -53.557,-9.072 -80.372,-4.221c-23.57,4.264 -43.788,-2.793 -63.988,-12.04c-0.386,-5.327 3.603,-5.637 6.113,-6.277c58.071,-14.805 116.46,-27.592 176.93,-26.274c20.955,0.457 41.523,3.652 61.229,10.71c32.601,11.676 47.279,40.334 37.475,73.548c-10.973,37.173 -35.799,65.603 -61.906,92.589c-61.001,63.055 -133.189,111.33 -208.57,155.196c-53.164,30.937 -108.402,57.745 -165.652,83.193Z" style="fill:#6b4e71;fill-rule:nonzero;"/><path d="M687.163,395.618c-12.548,41.903 -39.467,69.19 -78.189,84.947c-9.778,3.979 -14.166,9.004 -12.99,19.553c1.77,15.888 -6.331,26.419 -19.29,34.549c-23.188,14.548 -49.414,19.28 -75.658,22.454c-53.493,6.468 -106.79,4.193 -159.354,-8.592c-15.799,-3.843 -30.995,-9.683 -43.24,-20.628c-16.563,-14.804 -13.421,-27.504 7.49,-33.936c129.392,-39.802 251.782,-95.141 367.348,-165.626c5.646,-3.443 10.712,-8.41 20.132,-8.209c4.676,25.236 0.353,49.804 -6.249,75.488Z" style="fill-rule:nonzero;"/><path d="M2782.832,401.73c-10.75,-3.947 -8.246,-12.232 -8.278,-19.087c-0.2,-42.163 -0.1,-84.328 -2.228,-127.104c-10.999,30.464 -21.993,60.931 -32.999,91.392c-5.128,14.191 -11.144,28.132 -15.181,42.626c-4.203,15.09 -15.487,12.724 -26.213,12.897c-10.955,0.176 -21.154,1.42 -26.188,-13.082c-15.659,-45.114 -32.633,-89.771 -49.85,-136.655c-4.127,46.008 -0.459,89.811 -1.594,133.556c-0.323,12.431 -4.708,16.229 -16.541,16.205c-40.449,-0.082 -32.714,0.425 -32.887,-32.348c-0.341,-64.571 0.161,-129.147 -0.477,-193.713c-0.14,-14.139 4.071,-20.2 18.614,-18.822c9.288,0.88 18.881,1.189 28.071,-0.119c16.97,-2.415 23.388,5.756 28.44,20.872c16.129,48.258 33.872,95.976 51.966,146.632c12.391,-23.557 18.302,-46.552 26.47,-68.582c10.306,-27.797 19.778,-55.92 28.861,-84.143c3.425,-10.641 9.058,-15.188 20.358,-14.537c12.973,0.747 26.03,0.263 39.044,0c8.774,-0.177 13.628,2.792 13.606,12.507c-0.165,72.903 -0.164,145.807 -0.066,218.711c0.013,9.394 -4.737,13.171 -13.441,13.204c-9.366,0.035 -18.733,-0.063 -29.487,-0.407Z" style="fill:#6b4e71;fill-rule:nonzero;"/><path d="M2281.022,373.886c-37.888,35.663 -81.163,39.854 -126.989,23.786c-41.739,-14.635 -61.066,-48.004 -67.564,-89.83c-4.378,-28.179 -2.378,-56.164 7.029,-83.148c17.657,-50.65 65.911,-77.142 125.462,-69.565c48.284,6.143 85.343,45.481 91.719,94.729c4.232,32.688 3.623,64.183 -10.237,94.677c-4.786,10.531 -10.391,20.361 -19.421,29.351m-22.253,-86.222c0.224,-17.694 0.095,-35.165 -6.623,-52.176c-9.209,-23.317 -26.976,-33.245 -50.618,-34.949c-23.107,-1.666 -45.295,9.63 -53.653,30.152c-12.758,31.326 -14.972,63.774 -1.257,95.543c10.595,24.542 29.53,33.981 59.888,32.11c23.338,-1.439 39.224,-14.488 47.136,-38.748c3.077,-9.433 5.379,-19.008 5.128,-31.931Z" style="fill:#6b4e71;fill-rule:nonzero;"/><path d="M1431.771,166.317c7.506,-14.477 19.865,-7.787 29.765,-8.256c23.362,-1.106 23.436,-0.403 23.481,22.698c0.048,24.91 0.011,49.82 0.011,79.061c19.804,-22.582 37.093,-42.28 54.362,-61.996c5.827,-6.653 11.586,-13.365 17.404,-20.026c17.947,-20.55 46.374,-26.979 74.479,-16.16c-5.58,13.277 -16.661,22.274 -25.429,32.744c-18.028,21.527 -36.599,42.638 -55.756,63.164c-9.492,10.17 -10.08,17.293 -0.559,28.63c26.081,31.057 50.572,63.451 75.555,95.423c3.764,4.817 8.348,9.36 8.992,15.969c-21.046,11.72 -55.352,5.708 -69.286,-12.025c-25.011,-31.829 -50.021,-63.66 -74.874,-95.29c-6.856,3.037 -4.688,7.824 -4.722,11.424c-0.263,28.1 -0.621,56.21 -0.09,84.301c0.23,12.159 -4.424,16.426 -16.411,16.691c-37.631,0.83 -37.456,1.172 -37.358,-36.68c0.172,-66.086 0.115,-132.172 0.437,-199.672Z" style="fill-rule:nonzero;"/><path d="M1743.942,299.006c-5.17,-0.015 -8.847,0.286 -12.454,-0.086c-13.428,-1.384 -18.123,4.056 -17.964,17.874c0.438,38.036 -0.136,38.048 37.834,38.022c22.388,-0.015 44.786,0.325 67.161,-0.236c11.134,-0.279 15.847,3.491 16.233,15.114c1.087,32.714 1.469,32.716 -31.764,32.746c-41.132,0.037 -82.271,-0.363 -123.392,0.301c-13.523,0.218 -18.197,-4.21 -18.098,-17.955c0.506,-70.285 0.398,-140.577 -0.045,-210.863c-0.076,-12.088 3.746,-16.558 16.108,-16.428c45.812,0.482 91.636,0.399 137.449,-0.102c11.806,-0.129 17.16,3.284 16.726,15.906c-0.996,29.018 3.758,34.002 -31.111,30.912c-23.77,-2.107 -47.873,-0.188 -71.807,-0.84c-11.612,-0.316 -15.612,4.19 -15.383,15.597c0.843,41.985 -5.092,34.801 33.911,35.426c18.218,0.292 36.453,0.357 54.665,-0.103c10.746,-0.272 14.374,4.046 14.61,14.762c0.667,30.216 1.089,30.205 -28.98,30.098c-14.058,-0.05 -28.116,-0.092 -43.699,-0.145Z" style="fill-rule:nonzero;"/><path d="M1078.818,200.449c-14.289,-1.829 -27.309,-2.769 -39.947,1.469c-10.603,3.556 -18.466,10.364 -18.706,22.324c-0.225,11.213 8.076,16.594 17.287,19.582c15.314,4.968 30.982,8.836 46.415,13.454c10.942,3.275 22.006,6.379 32.553,10.691c23.453,9.589 38.418,26.391 40.708,52.457c2.538,28.895 -4.943,53.44 -30.803,70.186c-45.062,29.182 -120.667,18.631 -156.454,-21.623c-8.106,-9.118 -8.411,-15.311 1.921,-22.614c8.365,-5.913 14.739,-14.537 24.503,-19.053c8.177,3.451 12.181,11.322 18.561,16.504c20.659,16.78 43.731,20.874 68.882,13.705c11.751,-3.35 20.597,-10.461 21.343,-23.821c0.742,-13.294 -8.151,-19.87 -19.089,-23.424c-15.3,-4.972 -30.913,-9.013 -46.483,-13.107c-11.599,-3.049 -22.877,-6.759 -33.747,-11.921c-25.339,-12.032 -37.258,-32.468 -37.241,-59.888c0.016,-27.628 13.446,-47.38 37.784,-59.896c34.776,-17.884 102.495,-17.468 134.809,16.073c11.74,12.186 12.173,14.489 -0.984,25.617c-0.794,0.671 -1.656,1.262 -2.457,1.925c-19.281,15.955 -19.28,15.955 -39.427,0.359c-5.424,-4.199 -11.519,-7.026 -19.428,-8.998Z" style="fill-rule:nonzero;"/><path d="M2377.489,331.002c18.19,20.78 39.436,31.903 66.645,29.729c7.904,-0.631 15.455,-2.194 22.387,-6.074c8.125,-4.549 14.061,-10.549 14.021,-20.794c-0.04,-10.078 -5.42,-16.394 -13.647,-21.076c-14.732,-8.385 -31.334,-11.119 -47.434,-14.9c-11.218,-2.635 -22.046,-5.965 -32.636,-10.268c-21.706,-8.821 -37.058,-23.927 -40.59,-47.516c-4.087,-27.293 1.851,-51.588 26.032,-68.994c38.368,-27.619 111.969,-21.381 145.307,12.181c8.508,8.565 9.804,15.188 -0.322,22.711c-2.487,1.848 -4.548,4.269 -6.806,6.425c-15.769,15.056 -15.495,14.731 -31.656,1.076c-18.999,-16.052 -40.879,-19.28 -64.333,-11.963c-10.114,3.156 -17.868,9.692 -18.596,20.79c-0.702,10.705 6.749,17.134 15.62,21.282c19.009,8.889 39.983,11.169 59.872,17.143c21.777,6.541 42.766,14.534 53.992,36.383c14.224,27.685 10.217,76.617 -31.334,97.801c-43.583,22.221 -112.247,11.551 -146.658,-23.547c-9.472,-9.661 -11.042,-17.728 0.9,-24.85c9.362,-5.583 13.062,-21.34 29.234,-15.539Z" style="fill:#6b4e71;fill-rule:nonzero;"/><path d="M2022.992,166.219c16.186,7.902 26.506,20.009 34.207,34.576c2.143,4.054 5.649,9.372 1.316,12.904c-10.857,8.85 -22.563,16.869 -35.675,21.952c-5.523,2.141 -7.694,-4.254 -9.731,-8.209c-11.71,-22.73 -31.798,-29.281 -55.05,-26.681c-24.786,2.772 -40.665,17.746 -46.749,41.883c-6.719,26.656 -7.416,53.409 1.703,79.88c7.687,22.316 23.494,34.537 47.398,36.295c26.838,1.975 42.251,-6.206 53.676,-28.407c2.106,-4.092 4.421,-8.075 6.808,-12.414c14.468,2.107 25.554,10.121 37.224,16.533c7.811,4.291 3.84,10.985 1.463,16.491c-15.232,35.273 -43.902,52.067 -80.605,54.977c-73.917,5.86 -124.817,-41.394 -126.729,-115.628c-0.832,-32.309 2.053,-63.615 21.363,-90.888c32.069,-45.294 92.518,-58.859 149.382,-33.266Z" style="fill:#6b4e71;fill-rule:nonzero;"/><path d="M1340.089,361.823c-17.008,-44.673 -33.667,-88.185 -50.303,-131.637c-7.477,1.861 -7.524,7.245 -9.038,11.356c-17.238,46.814 -34.954,93.467 -51.171,140.634c-5.462,15.888 -13.551,21.207 -30.413,20.894c-39.871,-0.739 -33.073,-2.231 -21.78,-31.529c25.425,-65.961 51.755,-131.573 77.253,-197.506c4.521,-11.692 10.547,-16.903 23.967,-16.755c42.58,0.469 32.709,-5.817 47.572,31.281c26.855,67.03 52.955,134.362 79.322,201.587c0.927,2.364 1.336,4.931 2.548,9.538c-17.126,4.735 -33.951,4.493 -50.274,0.637c-7.423,-1.754 -7.556,-11.753 -10.338,-18.318c-2.633,-6.213 -4.688,-12.671 -7.346,-20.181Z" style="fill-rule:nonzero;"/></svg>