<?xml version="1.0" encoding="UTF-8" standalone="no"?><!DOCTYPE svg PUBLIC "-//W3C//DTD SVG 1.1//EN" "http://www.w3.org/Graphics/SVG/1.1/DTD/svg11.dtd"><svg width="100%" height="100%" viewBox="0 0 2895 561" version="1.1" xmlns="http://www.w3.org/2000/svg" xmlns:xlink="http://www.w3.org/1999/xlink" xml:space="preserve" xmlns:serif="http://www.serif.com/" style="fill-rule:evenodd;clip-rule:evenodd;stroke-linejoin:round;stroke-miterlimit:2;"><path d="M333.315,38.622c96.128,-14.021 190.108,-12.099 282.833,14.287c17.143,4.878 33.318,11.938 48.494,21.22c19.705,12.053 30.517,28.496 28.961,52.889c-1.122,17.583 0.161,35.383 1.298,53.027c0.852,13.224 -3.726,22.139 -14.473,30.38c-87.971,67.46 -185.687,116.852 -288.449,157.003c-52.976,20.699 -107.428,36.234 -163.575,45.691c-21.542,3.628 -24.127,2.385 -30.386,-18.03c-4.753,-15.504 -7.241,-31.359 -7.214,-47.66c0.119,-73.437 0.643,-146.881 -0.263,-220.306c-0.307,-24.866 9.879,-42.007 30.287,-53.973c31.017,-18.186 65.238,-26.86 100.381,-32.507c3.591,-0.577 7.183,-1.145 12.106,-2.021m53.87,25.513c-29.683,1.408 -58.898,6.134 -87.777,12.887c-21.331,4.988 -42.285,11.41 -60.8,23.535c-16.447,10.771 -16.25,17.179 0.074,28.543c15.679,10.914 33.735,16.228 51.963,20.508c92.467,21.714 185.494,22.376 278.639,5.294c26.021,-4.772 52.097,-10.921 75.047,-25.235c15.868,-9.897 16.021,-19.218 0.464,-29.409c-14.929,-9.78 -31.636,-15.921 -48.886,-20.043c-67.728,-16.184 -136.25,-22.992 -208.727,-16.08Z" style="fill-rule:nonzero;"/><path d="M465.271,415.33c-82.982,35.801 -166.77,65.472 -254.442,82.85c-50.581,10.026 -101.56,18.481 -153.139,7.131c-52.419,-11.534 -71.045,-49.086 -47.888,-97.253c23.804,-49.514 62.787,-86.4 104.106,-121.007c16.651,-13.946 33.084,-28.291 53.539,-40.396c4.827,14.171 5.911,25.836 -5.086,36.397c-16.52,15.866 -33.15,31.632 -46.508,50.456c-7.267,10.242 -13.816,20.809 -18.254,32.605c-12.216,32.468 -1.302,55.338 32.163,64.913c31.175,8.92 63.098,6.829 94.481,1.883c123.015,-19.386 235.632,-67.552 343.709,-127.261c62.581,-34.574 122.071,-73.897 173.235,-124.503c20.423,-20.2 39.17,-41.709 51.015,-68.484c13.191,-29.817 2.991,-54.141 -28.191,-63.758c-26.322,-8.118 -53.557,-9.072 -80.372,-4.221c-23.57,4.264 -43.788,-2.793 -63.988,-12.04c-0.386,-5.327 3.603,-5.637 6.113,-6.277c58.071,-14.805 116.46,-27.592 176.93,-26.274c20.955,0.457 41.523,3.652 61.229,10.71c32.601,11.676 47.279,40.334 37.475,73.548c-10.973,37.173 -35.799,65.603 -61.906,92.589c-61.001,63.055 -133.189,111.33 -208.57,155.196c-53.164,30.937 -108.402,57.745 -165.652,83.193Z" style="fill:#6b4e71;fill-rule:nonzero;"/><path d="M687.163,395.618c-12.548,41.903 -39.467,69.19 -78.189,84.947c-9.778,3.979 -14.166,9.004 -12.99,19.553c1.77,15.888 -6.331,26.419 -19.29,34.549c-23.188,14.548 -49.414,19.28 -75.658,22.454c-53.493,6.468 -106.79,4.193 -159.354,-8.592c-15.799,-3.843 -30.995,-9.683 -43.24,-20.628c-16.563,-14.804 -13.421,-27.504 7.49,-33.936c129.392,-39.802 251.782,-95.141 367.348,-165.626c5.646,-3.443 10.712,-8.41 20.132,-8.209c4.676,25.236 0.353,49.804 -6.249,75.488Z" style="fill-rule:nonzero;"/><path d="M2468.338,327.819c10.91,18.82 21.25,36.649 33.179,57.218c-19.477,2.12 -35.848,1.89 -52.133,0.463c-6.376,-0.559 -8.259,-7.307 -11.015,-12.244c-11.671,-20.909 -23.175,-41.913 -35.014,-62.727c-6.007,-10.56 -26.241,-16.064 -36.778,-10.608c-5.968,3.09 -4.976,8.645 -5.018,13.675c-0.159,19.268 -0.392,38.543 -0.002,57.804c0.21,10.346 -3.223,15.191 -14.351,15.04c-42.373,-0.576 -36.504,4.128 -36.63,-34.899c-0.196,-60.931 -0.096,-121.862 -0.018,-182.793c0.026,-20.067 1.192,-21.605 21.259,-21.169c31.195,0.678 62.522,-2.727 93.575,1.976c38.446,5.823 57.216,22.846 64.688,57.504c7.305,33.886 -4.354,60.462 -35.428,80.902c-1.664,1.094 -3.059,2.598 -4.968,4.247c4.09,12.836 11.628,23.456 18.654,35.61m-60.885,-135.128c-8.311,-0.001 -16.622,-0.016 -24.933,-0c-20.997,0.039 -20.997,0.045 -21.059,21.767c-0.122,42.674 -0.122,42.674 43.044,41.749c21.568,-0.462 34.866,-10.799 36.502,-28.373c1.838,-19.749 -7.523,-30.404 -33.554,-35.143Z" style="fill:#6b4e71;fill-rule:nonzero;"/><path d="M1785.58,192.684c-18.21,0.015 -34.864,0.209 -51.511,-0.034c-9.191,-0.134 -13.144,3.654 -12.991,13.04c0.68,41.593 -4.769,35.693 33.615,36.167c17.689,0.219 35.39,0.308 53.072,-0.109c12.078,-0.285 17.34,4.827 15.982,16.881c-0.348,3.085 -0.41,6.278 -0.038,9.354c1.62,13.405 -3.7,18.769 -17.583,18.235c-22.863,-0.88 -45.794,0.132 -68.672,-0.498c-11.744,-0.324 -16.986,3.044 -16.499,15.836c1.755,46.193 -7.8,39.088 39.354,39.685c20.29,0.257 40.606,0.555 60.873,-0.177c13.075,-0.472 18.75,3.406 18.465,17.603c-0.557,27.694 0.149,27.703 -28.007,27.701c-41.108,-0.003 -82.218,-0.289 -123.32,0.191c-11.748,0.137 -16.581,-3.097 -16.487,-15.831c0.514,-69.202 0.409,-138.412 0.062,-207.616c-0.057,-11.402 4.04,-15.909 15.413,-15.832c44.748,0.305 89.499,0.337 134.247,0.044c11.449,-0.075 15.217,4.465 15.273,15.834c0.146,29.494 0.617,29.49 -29.393,29.492c-6.765,0 -13.529,0.02 -21.853,0.034Z" style="fill-rule:nonzero;"/><path d="M2244.359,285.91c-24.385,0.008 -47.282,0.374 -70.157,-0.16c-10.926,-0.255 -16.174,2.642 -15.814,14.819c1.425,48.201 -7.348,39.973 39.818,40.653c20.283,0.292 40.584,0.433 60.856,-0.113c12.552,-0.338 18.615,4.306 17.445,17.288c-0.418,4.644 -0.286,9.369 -0.027,14.036c0.543,9.784 -3.496,14.053 -13.688,13.99c-46.814,-0.287 -93.632,-0.254 -140.447,-0.015c-9.386,0.048 -12.856,-3.693 -12.833,-12.968c0.174,-70.744 0.18,-141.489 -0.08,-212.233c-0.038,-10.303 4.598,-13.821 14.125,-13.799c45.775,0.107 91.551,0.157 137.326,-0.052c10.286,-0.047 13.099,4.774 13.366,14.4c0.857,30.9 1.167,30.885 -29.429,30.864c-23.928,-0.016 -47.863,0.319 -71.782,-0.168c-10.631,-0.217 -14.919,3.419 -14.651,14.428c0.961,39.414 -4.746,34.741 33.271,35.001c14.564,0.1 29.13,-0.009 43.695,-0.037c26.449,-0.052 26.033,-0.056 26.092,27.031c0.025,11.412 -2.752,18.319 -17.088,17.036Z" style="fill:#6b4e71;fill-rule:nonzero;"/><path d="M1079.425,289.109c-14.744,-4.152 -28.444,-7.448 -41.645,-12.147c-27.518,-9.795 -44.555,-28.827 -45.937,-58.753c-1.263,-27.36 10.939,-47.926 34.899,-61.672c40.174,-23.048 103.384,-14.629 135.174,17.593c8.155,8.266 9.046,14.372 -0.574,21.304c-2.948,2.124 -5.912,4.382 -8.324,7.068c-9.787,10.901 -17.221,13.719 -29.677,0.569c-16.418,-17.333 -39.624,-16.801 -61.609,-11.924c-9.825,2.179 -18.134,8.706 -18.87,20.337c-0.742,11.724 6.619,18.563 16.467,22.069c11.711,4.17 23.958,6.823 35.939,10.249c11.99,3.429 24.103,6.526 35.874,10.604c29.195,10.113 45.285,30.275 45.788,61.803c0.482,30.231 -15.831,54.31 -45.148,66.677c-43.838,18.493 -106.267,6.957 -135.221,-24.987c-12.932,-14.268 -12.872,-15.348 1.595,-28.037c2.739,-2.403 5.661,-4.625 8.204,-7.219c8.52,-8.69 14.672,-8.897 23.818,1.292c20.372,22.696 46.809,27.769 75.665,19.224c10.478,-3.103 18.538,-9.6 19.559,-21.764c1.039,-12.377 -5.944,-19.071 -16.365,-23.764c-9.106,-4.1 -18.588,-6.587 -29.612,-8.523Z" style="fill-rule:nonzero;"/><path d="M2848.067,386.356c-34.332,-0.003 -67.106,0.014 -99.879,-0.017c-20.566,-0.019 -26.49,-7.71 -17.82,-26.114c4.041,-8.579 4.72,-16.695 4.858,-25.479c0.898,-57.138 2.045,-114.273 2.584,-171.414c0.106,-11.243 3.93,-15.984 15.414,-15.907c41.614,0.281 83.233,0.175 124.848,-0.098c10.56,-0.069 14.523,4.165 14.796,14.867c0.779,30.424 1.162,30.417 -28.516,30.438c-20.288,0.015 -40.587,0.419 -60.861,-0.127c-11.097,-0.299 -15.975,3.783 -16.726,15.076c-2.285,34.39 -2.556,34.354 32.26,34.365c16.646,0.005 33.299,0.42 49.937,0.062c18.576,-0.399 16.64,12.389 17.102,24.577c0.473,12.473 -2.834,19.94 -17.201,19.573c-22.355,-0.571 -44.741,0.101 -67.101,-0.37c-9.897,-0.208 -14.725,2.199 -16.041,13.429c-4.941,42.136 -5.398,42.078 37.056,42.099c19.248,0.009 38.498,0.248 57.742,-0.025c9.989,-0.142 13.807,4.324 13.965,14.102c0.499,30.994 0.69,30.991 -30.81,30.965c-4.682,-0.004 -9.364,-0.003 -15.606,-0.003Z" style="fill:#6b4e71;fill-rule:nonzero;"/><path d="M1446.956,263.488c0.014,-34.365 0.431,-67.176 -0.16,-99.968c-0.223,-12.361 4.461,-16.508 16.461,-16.294c39.728,0.709 32.212,-1.143 32.772,32.679c0.34,20.498 0.063,41.007 0.063,62.059c10.862,-1.492 14.293,-7.936 18.57,-12.793c19.605,-22.268 39.417,-44.396 58.006,-67.499c8.805,-10.943 18.633,-15.752 32.244,-14.181c11.558,1.334 23.662,-2.361 36.169,3.597c-8.988,15.706 -21.258,27.68 -32.121,40.616c-16.725,19.917 -33.78,39.607 -51.653,58.486c-7.282,7.692 -5.804,12.445 -0.002,19.646c25.14,31.206 49.881,62.736 74.544,94.322c4.623,5.92 10.452,11.357 12.745,21.661c-18.74,0 -36.175,0.522 -53.55,-0.266c-6.604,-0.3 -9.722,-7.407 -13.506,-12.193c-20.66,-26.132 -40.974,-52.537 -61.683,-78.63c-4.67,-5.884 -8.421,-13.135 -16.541,-15.588c-5.152,5.004 -3.117,11.075 -3.163,16.517c-0.212,24.991 -0.405,49.991 0.09,74.974c0.214,10.821 -2.554,15.911 -14.743,16.056c-34.716,0.414 -34.654,0.908 -34.554,-34.165c0.083,-29.158 0.014,-58.316 0.01,-89.037Z" style="fill-rule:nonzero;"/><path d="M2525.233,200.879c7.18,-28.87 26.08,-44.456 52.518,-51.453c42.927,-11.361 82.45,-6.142 116.083,25.613c7.022,6.63 8.673,12.285 0.21,19.077c-8.429,6.765 -16.298,14.226 -25.853,22.651c-16.846,-24.134 -39.82,-30.5 -66.365,-27.41c-13.337,1.553 -25.009,6.308 -27.56,20.834c-2.826,16.094 9.673,22.193 21.754,25.919c20.334,6.273 41.504,9.906 61.699,16.546c33.957,11.165 47.194,29.659 48.949,64.581c0.19,3.773 0.264,8.304 -2.627,10.222c-12.354,8.197 -15.982,22.657 -24.92,33.293c-23.561,28.038 -67.694,37.771 -109.104,23.36c-18.554,-6.457 -34.652,-16.282 -46.913,-32.172c-5.756,-7.46 -5.619,-12.844 2.335,-17.952c1.737,-1.116 3.209,-2.645 4.8,-3.988c18.535,-15.644 18.295,-15.353 37.207,0.248c20.953,17.285 44.947,20.811 70.481,12.708c10.448,-3.316 18.226,-10.109 18.7,-22.373c0.452,-11.688 -6.574,-18.437 -16.177,-22.472c-8.572,-3.603 -17.667,-6.029 -26.64,-8.597c-13.982,-4.002 -28.291,-6.987 -42.044,-11.638c-36.318,-12.284 -51.806,-37.884 -46.534,-76.997Z" style="fill:#6b4e71;fill-rule:nonzero;"/><path d="M1411.238,353.691c3.172,10.903 9.47,19.68 9.746,31.104c-15.426,2.887 -29.923,1.526 -44.322,1.217c-8.675,-0.186 -9.926,-7.955 -12.274,-14.176c-19.441,-51.518 -38.851,-103.047 -58.998,-156.506c-10.274,13.566 -13.042,28.441 -18.264,42.015c-14.742,38.318 -28.89,76.873 -42.673,115.548c-3.476,9.755 -8.308,14.809 -19.147,13.607c-11.746,-1.302 -23.821,1.871 -35.142,-1.859c-3.18,-5.958 -0.098,-10.618 1.751,-15.333c27.327,-69.688 54.851,-139.299 81.911,-209.091c3.569,-9.206 8.805,-12.656 18.509,-12.919c35.482,-0.96 36.166,-1.516 49.517,31.305c23.502,57.778 46.066,115.937 69.386,175.086Z" style="fill-rule:nonzero;"/><path d="M2071.851,186.928c-23.546,61.288 -46.933,121.349 -69.402,181.753c-4.873,13.101 -11.109,18.854 -25.889,18.051c-35.221,-1.914 -28.872,5.778 -42.737,-29.871c-23.552,-60.555 -46.827,-121.219 -69.998,-181.921c-2.905,-7.61 -7.487,-14.878 -6.98,-25.475c15.028,-3.646 30.364,-2.738 45.523,-0.803c6.611,0.844 7.2,8.097 9.15,13.365c18.933,51.132 37.869,102.262 57.287,154.697c6.318,-4.264 7.174,-10.129 8.988,-15.06c16.513,-44.873 33.411,-89.621 48.855,-134.863c5.088,-14.906 12.857,-21.405 28.312,-19.384c9.088,1.189 18.665,-1.788 28.207,3.284c-0.685,12.64 -6.993,23.532 -11.316,36.227Z" style="fill:#6b4e71;fill-rule:nonzero;"/></svg>